<svg xmlns="http://www.w3.org/2000/svg" width="201.242" height="60.672" viewBox="0 0 201.242 60.672">
  <g id="Agrupar_780" data-name="Agrupar 780" transform="translate(-56 -111.594)">
    <rect id="Retângulo_729" data-name="Retângulo 729" width="38.863" height="32.001" transform="translate(56 125.929)" fill="#ffe600"/>
    <g id="A_-_ML_VERT" data-name="A - ML_VERT" transform="translate(60.778 131.789)">
      <g id="Agrupar_750" data-name="Agrupar 750">
        <g id="Agrupar_749" data-name="Agrupar 749">
          <g id="Agrupar_747" data-name="Agrupar 747" transform="translate(0.698 3.563)">
            <path id="Caminho_797" data-name="Caminho 797" d="M152.338,186.83a8.491,8.491,0,0,1-3.731-.895,7.372,7.372,0,0,0-2.737-.648h-.1a5.087,5.087,0,0,0-3.945,1.91l-1.223,1.317-.008.01c-.057.073-.073.123-.049.155a1.35,1.35,0,0,0,.989.318,2.384,2.384,0,0,0,.526-.059,4.575,4.575,0,0,0,1.42-.9l.029-.022a5.777,5.777,0,0,1,1.665-1.054,2.34,2.34,0,0,1,.707-.12,1.891,1.891,0,0,1,.557.087,3.814,3.814,0,0,1,1.133.66c.871.653,4.082,3.446,5.473,4.659a33.54,33.54,0,0,1,6.155-2,7.638,7.638,0,0,0-2.774-4.392A9.741,9.741,0,0,1,152.338,186.83Z" transform="translate(-131.248 -185.287)" fill="#fff"/>
            <path id="Caminho_798" data-name="Caminho 798" d="M127.921,221.63a.893.893,0,1,0-.266.757l.056-.054.062.049a.119.119,0,0,1,.038.114,1.2,1.2,0,0,0,.751,1.393.86.86,0,0,0,.31.06.961.961,0,0,0,.555-.2.2.2,0,0,1,.113-.046h.04l.041.036a.165.165,0,0,1,.024.137c-.027.181-.017.63.637.9a.986.986,0,0,0,.371.08.805.805,0,0,0,.563-.254.219.219,0,0,1,.139-.073c.118,0,.124.14.126.193a1.148,1.148,0,0,0,2.3-.052,1.16,1.16,0,0,0-1.149-1.149h0a1.452,1.452,0,0,0-.449.1.57.57,0,0,1-.163.043h-.026l-.033-.016c-.069-.045-.065-.124.007-.3,0-.011.386-1.08-.455-1.441a1.259,1.259,0,0,0-.494-.111.9.9,0,0,0-.658.278.147.147,0,0,1-.1.054c-.016,0-.1-.006-.109-.122a.9.9,0,0,0-.632-.842,1.244,1.244,0,0,0-1.429.509l-.131.2Z" transform="translate(-119.753 -213.699)" fill="#fff"/>
            <path id="Caminho_799" data-name="Caminho 799" d="M95.19,191.806c3.715.844,5.1,1.725,5.453,1.993a1.412,1.412,0,0,1,2.1.118,1.583,1.583,0,0,1,.937-.3,1.838,1.838,0,0,1,.6.106,1.418,1.418,0,0,1,.822.7,1.422,1.422,0,0,1,.513-.093,1.768,1.768,0,0,1,.7.154,1.489,1.489,0,0,1,.85,1.575h.062a1.677,1.677,0,0,1,1.516,2.391,2.578,2.578,0,0,0,1.1.327,1.087,1.087,0,0,0,.149-.009c.408-.051.544-.187.584-.243a.261.261,0,0,0,.042-.076L109.5,197.2c-.069-.065-.233-.243-.124-.362a.157.157,0,0,1,.119-.053.453.453,0,0,1,.256.137c.55.459,1.214,1.137,1.286,1.212l.016.016a.448.448,0,0,0,.259.11,1.022,1.022,0,0,0,.179.015,1.052,1.052,0,0,0,.644-.2,1.628,1.628,0,0,0,.123-.118l.046-.059a.507.507,0,0,0-.03-.632l-1.318-1.48a.774.774,0,0,1-.09-.1c-.1-.135-.074-.217-.034-.261a.152.152,0,0,1,.114-.049.481.481,0,0,1,.269.14c.358.3.847.781,1.321,1.246l.259.255a.926.926,0,0,0,.516.157,1.161,1.161,0,0,0,.64-.212.824.824,0,0,0,.429-.748.862.862,0,0,0-.25-.489l-1.806-1.816c-.118-.1-.219-.253-.129-.363a.145.145,0,0,1,.118-.056.479.479,0,0,1,.268.143c.569.477,2.115,1.894,2.132,1.908a.974.974,0,0,0,.523.152,1.092,1.092,0,0,0,.592-.185.725.725,0,0,0,.361-.577.872.872,0,0,0-.271-.663c-.044-.039-4.557-3.987-5.576-4.753a2.435,2.435,0,0,0-1.224-.583.841.841,0,0,0-.117-.007,1.856,1.856,0,0,0-.451.062,5.479,5.479,0,0,0-1.618.968,4.755,4.755,0,0,1-1.645,1.012,2.41,2.41,0,0,1-.527.055,2.589,2.589,0,0,1-1.319-.335.869.869,0,0,1-.326-.362.623.623,0,0,1,.17-.686l1.242-1.344c.081-.081.161-.161.241-.239-.3.057-.587.137-.847.209a5.077,5.077,0,0,1-1.348.25c-.2,0-.408-.022-.6-.034a21.228,21.228,0,0,1-4.64-1.339,7.855,7.855,0,0,0-2.979,4.44C94.611,191.651,95.013,191.766,95.19,191.806Z" transform="translate(-94.357 -186.765)" fill="#fff"/>
          </g>
          <path id="Caminho_800" data-name="Caminho 800" d="M105.539,167.566c-8.093,0-14.652,4.3-14.652,9.583,0,.136,0,.513,0,.561,0,5.6,5.733,10.138,14.652,10.138,8.973,0,14.654-4.535,14.654-10.136v-.562C120.191,171.87,113.631,167.566,105.539,167.566Zm13.991,8.522a33.521,33.521,0,0,0-6.155,2c-1.39-1.213-4.6-4.006-5.473-4.659a3.816,3.816,0,0,0-1.133-.66,1.892,1.892,0,0,0-.557-.087,2.34,2.34,0,0,0-.707.12,5.777,5.777,0,0,0-1.665,1.054l-.029.022a4.575,4.575,0,0,1-1.42.9,2.384,2.384,0,0,1-.526.059,1.35,1.35,0,0,1-.989-.318c-.024-.032-.009-.082.049-.155l.008-.01,1.223-1.317a5.087,5.087,0,0,1,3.945-1.91h.1a7.372,7.372,0,0,1,2.737.648,8.491,8.491,0,0,0,3.731.895,9.74,9.74,0,0,0,4.087-.978A7.639,7.639,0,0,1,119.53,176.088Zm-13.988-7.956a18.124,18.124,0,0,1,10.722,3.17,9.01,9.01,0,0,1-3.588.813,7.936,7.936,0,0,1-3.491-.84,7.852,7.852,0,0,0-2.979-.7h-.118a5.172,5.172,0,0,0-3.4,1.206,6.727,6.727,0,0,0-1.7.309,4.6,4.6,0,0,1-1.194.229c-.153,0-.428-.014-.454-.015a23.219,23.219,0,0,1-4.28-1.185A18.333,18.333,0,0,1,105.542,168.132ZM94.561,171.5a21.241,21.241,0,0,0,4.642,1.34c.191.013.395.034.6.034a5.077,5.077,0,0,0,1.348-.25c.26-.072.546-.152.847-.209q-.12.118-.241.239L100.513,174a.623.623,0,0,0-.17.686.868.868,0,0,0,.326.362,2.589,2.589,0,0,0,1.319.335,2.411,2.411,0,0,0,.527-.055,4.755,4.755,0,0,0,1.645-1.012,5.479,5.479,0,0,1,1.618-.968,1.856,1.856,0,0,1,.451-.062.843.843,0,0,1,.117.007,2.435,2.435,0,0,1,1.224.583c1.019.767,5.532,4.714,5.576,4.753a.872.872,0,0,1,.271.663.725.725,0,0,1-.361.577,1.093,1.093,0,0,1-.592.185.973.973,0,0,1-.523-.152c-.016-.013-1.563-1.431-2.132-1.908a.479.479,0,0,0-.268-.143.145.145,0,0,0-.118.056c-.09.11.01.263.129.363l1.806,1.816a.862.862,0,0,1,.25.489.824.824,0,0,1-.429.748,1.161,1.161,0,0,1-.64.212.926.926,0,0,1-.516-.157l-.259-.255c-.474-.466-.963-.948-1.321-1.246a.481.481,0,0,0-.269-.14.152.152,0,0,0-.114.049c-.04.045-.069.127.034.261a.776.776,0,0,0,.09.1l1.318,1.48a.507.507,0,0,1,.03.632l-.046.059a1.632,1.632,0,0,1-.123.118,1.051,1.051,0,0,1-.644.2,1.024,1.024,0,0,1-.179-.015.448.448,0,0,1-.259-.11l-.016-.016c-.072-.074-.736-.752-1.286-1.212a.453.453,0,0,0-.256-.137.157.157,0,0,0-.119.053c-.109.119.054.3.124.362l1.123,1.24a.26.26,0,0,1-.042.076c-.041.056-.177.192-.584.243a1.089,1.089,0,0,1-.149.009,2.578,2.578,0,0,1-1.1-.327,1.677,1.677,0,0,0-1.516-2.391H104.4a1.489,1.489,0,0,0-.85-1.575,1.767,1.767,0,0,0-.7-.154,1.421,1.421,0,0,0-.513.093,1.418,1.418,0,0,0-.822-.7,1.839,1.839,0,0,0-.6-.106,1.583,1.583,0,0,0-.937.3,1.412,1.412,0,0,0-2.1-.118c-.35-.267-1.738-1.149-5.453-1.993-.178-.04-.581-.155-.835-.23A7.853,7.853,0,0,1,94.561,171.5Zm6.892,9.671-.041-.036h-.04a.2.2,0,0,0-.113.046.961.961,0,0,1-.555.2.859.859,0,0,1-.31-.06,1.2,1.2,0,0,1-.751-1.393.119.119,0,0,0-.038-.114l-.062-.049-.056.054a.886.886,0,0,1-.618.25.894.894,0,1,1,.884-1.007l.03.24.131-.2a1.244,1.244,0,0,1,1.429-.509.9.9,0,0,1,.632.842c.01.116.092.122.109.122a.147.147,0,0,0,.1-.054.9.9,0,0,1,.658-.278,1.259,1.259,0,0,1,.494.111c.841.361.459,1.431.455,1.442-.073.177-.076.256-.007.3l.033.016h.026a.57.57,0,0,0,.163-.043,1.452,1.452,0,0,1,.449-.1h0a1.148,1.148,0,1,1,0,2.3,1.141,1.141,0,0,1-1.146-1.1c0-.053-.007-.193-.126-.193a.219.219,0,0,0-.139.073.805.805,0,0,1-.563.254.986.986,0,0,1-.371-.08c-.654-.265-.663-.714-.637-.9A.165.165,0,0,0,101.453,181.171Zm4.089,4.987c-7.781,0-14.089-4.036-14.089-9.013a5.747,5.747,0,0,1,.034-.6c.087.021.683.163.808.191,3.794.843,5.049,1.72,5.261,1.886a1.408,1.408,0,0,0-.109.546,1.424,1.424,0,0,0,1.422,1.423,1.407,1.407,0,0,0,.26-.024,1.658,1.658,0,0,0,1.073,1.239,1.419,1.419,0,0,0,.507.1,1.265,1.265,0,0,0,.324-.04,1.649,1.649,0,0,0,1.441.941,1.254,1.254,0,0,0,.434-.078,1.673,1.673,0,0,0,2.752.531,3.151,3.151,0,0,0,1.42.424,1.783,1.783,0,0,0,.214-.014,1.3,1.3,0,0,0,.962-.471.7.7,0,0,0,.06-.1,1.663,1.663,0,0,0,.455.071,1.536,1.536,0,0,0,.918-.328,1.262,1.262,0,0,0,.541-.787.078.078,0,0,0,0-.011,1.552,1.552,0,0,0,.307.031,1.7,1.7,0,0,0,.943-.3,1.356,1.356,0,0,0,.676-1.211,1.547,1.547,0,0,0,.311.032,1.624,1.624,0,0,0,.883-.272,1.292,1.292,0,0,0,.614-1,1.355,1.355,0,0,0-.2-.807,36.487,36.487,0,0,1,5.843-1.83q.017.223.017.45C119.63,182.122,113.322,186.158,105.542,186.158Z" transform="translate(-90.885 -167.566)" fill="#283277"/>
          <g id="Agrupar_748" data-name="Agrupar 748" transform="translate(0.568 0.566)">
            <path id="Caminho_801" data-name="Caminho 801" d="M116.024,214.224a1.355,1.355,0,0,1,.2.807,1.292,1.292,0,0,1-.614,1,1.624,1.624,0,0,1-.883.272,1.548,1.548,0,0,1-.311-.032,1.356,1.356,0,0,1-.676,1.211,1.7,1.7,0,0,1-.943.3,1.553,1.553,0,0,1-.307-.031.076.076,0,0,1,0,.011,1.262,1.262,0,0,1-.541.787,1.536,1.536,0,0,1-.918.328,1.664,1.664,0,0,1-.455-.071.7.7,0,0,1-.059.1,1.3,1.3,0,0,1-.962.471,1.78,1.78,0,0,1-.214.014,3.152,3.152,0,0,1-1.42-.424,1.673,1.673,0,0,1-2.752-.531,1.254,1.254,0,0,1-.434.078,1.649,1.649,0,0,1-1.441-.941,1.265,1.265,0,0,1-.324.04,1.419,1.419,0,0,1-.507-.1,1.658,1.658,0,0,1-1.073-1.239,1.405,1.405,0,0,1-.26.024A1.424,1.424,0,0,1,99.7,214.87a1.408,1.408,0,0,1,.109-.546c-.212-.165-1.467-1.042-5.261-1.886-.125-.028-.721-.17-.808-.191-.008.08-.015.161-.021.242-.007.117-.014.235-.014.354,0,4.977,6.308,9.013,14.089,9.013s14.088-4.036,14.088-9.013q0-.227-.017-.45A36.492,36.492,0,0,0,116.024,214.224Z" transform="translate(-93.708 -203.831)" fill="#ffe600"/>
            <path id="Caminho_802" data-name="Caminho 802" d="M115.975,174.55c.025,0,.3.015.454.015a4.6,4.6,0,0,0,1.194-.229,6.726,6.726,0,0,1,1.7-.309,5.172,5.172,0,0,1,3.4-1.206h.118a7.853,7.853,0,0,1,2.979.7,7.936,7.936,0,0,0,3.491.84,9.009,9.009,0,0,0,3.588-.813l0,0c-.157-.117-.317-.231-.483-.343l-.028-.019q-.239-.161-.492-.315l-.036-.023q-.253-.153-.517-.3l-.033-.018q-.275-.15-.562-.291l-.008,0a16.96,16.96,0,0,0-2.542-.993l-.08-.023q-.286-.085-.578-.163l-.174-.044c-.166-.042-.333-.083-.5-.121l-.224-.049c-.155-.033-.311-.065-.469-.095l-.255-.046c-.151-.026-.3-.051-.455-.075l-.274-.04c-.15-.021-.3-.039-.454-.057l-.284-.033c-.154-.016-.311-.029-.467-.042-.093-.008-.186-.016-.28-.023-.17-.012-.342-.02-.513-.028l-.243-.012q-.38-.013-.765-.014c-.252,0-.5,0-.752.013-.081,0-.161.008-.242.011-.166.007-.334.015-.5.026-.1.007-.189.016-.283.023-.149.012-.3.024-.447.039l-.293.034c-.143.016-.286.033-.427.052l-.293.044c-.138.021-.277.042-.415.065l-.286.052c-.137.025-.273.051-.408.079l-.276.06c-.136.03-.271.062-.4.094l-.263.066c-.136.036-.271.072-.4.11l-.246.071q-.206.061-.407.127l-.226.074c-.14.047-.277.1-.415.147l-.2.073c-.145.055-.287.112-.429.17l-.167.069c-.154.065-.305.133-.455.2l-.121.054c-.175.083-.347.169-.517.257l-.037.019a13.505,13.505,0,0,0-1.562.953h0A23.219,23.219,0,0,0,115.975,174.55Z" transform="translate(-108.079 -170.38)" fill="#ffe600"/>
          </g>
        </g>
      </g>
    </g>
    <rect id="Retângulo_730" data-name="Retângulo 730" width="162.379" height="32.001" transform="translate(94.863 125.929)" fill="#283277"/>
    <rect id="Retângulo_731" data-name="Retângulo 731" width="4.778" height="4.778" transform="translate(104.419 157.931)" fill="#ffe600" opacity="0.3"/>
    <rect id="Retângulo_732" data-name="Retângulo 732" width="4.778" height="4.778" transform="translate(90.084 167.487)" fill="#ffe600" opacity="0.5"/>
    <rect id="Retângulo_733" data-name="Retângulo 733" width="4.778" height="4.778" transform="translate(80.527 121.151)" fill="#ffe600" opacity="0.5"/>
    <rect id="Retângulo_734" data-name="Retângulo 734" width="4.778" height="4.778" transform="translate(80.527 111.594)" fill="#ffe600" opacity="0.5"/>
    <rect id="Retângulo_735" data-name="Retângulo 735" width="9.557" height="9.557" transform="translate(85.306 157.931)" fill="#ffe600" opacity="0.3"/>
    <rect id="Retângulo_736" data-name="Retângulo 736" width="9.557" height="9.557" transform="translate(94.863 157.931)" fill="#ffe600" opacity="0.5"/>
    <rect id="Retângulo_737" data-name="Retângulo 737" width="9.557" height="9.557" transform="translate(85.306 116.372)" fill="#ffe600" opacity="0.3"/>
    <g id="Agrupar_779" data-name="Agrupar 779" transform="translate(99.641 130.708)">
      <path id="Caminho_807" data-name="Caminho 807" d="M303.7,168.919l-6.326,15.714h-2.086l-6.326-15.714v15.714h-4.778V162.189h6.7l5.452,13.561,5.451-13.561h6.73v22.444H303.7Z" transform="translate(-284.188 -162.189)" fill="#fff"/>
      <path id="Caminho_808" data-name="Caminho 808" d="M468.614,162.189H484.5V166.4h-11.1v4.745h10.869v4.206H473.392v5.081h11.1v4.206H468.614Z" transform="translate(-431.536 -162.189)" fill="#fff"/>
      <path id="Caminho_809" data-name="Caminho 809" d="M608.507,162.189h4.778v18.238h9.489v4.206H608.507Z" transform="translate(-543.304 -162.189)" fill="#fff"/>
      <path id="Caminho_810" data-name="Caminho 810" d="M733.138,162.189h4.779v22.444h-4.779Z" transform="translate(-642.878 -162.189)" fill="#fff"/>
      <path id="Caminho_811" data-name="Caminho 811" d="M819.461,174.5l-7.806,10.129h-2.423l9.052-11.508-8.547-10.936h2.456l7.268,9.523,7.3-9.523h2.422l-8.513,10.9,9.018,11.542H827.3Z" transform="translate(-703.674 -162.189)" fill="#fff"/>
      <path id="Caminho_812" data-name="Caminho 812" d="M968.838,162.189h8.412a6.565,6.565,0,1,1,0,13.124h-6.495v9.321h-1.918Zm8.211,1.75h-6.293v9.624h6.293a4.814,4.814,0,1,0,0-9.624Z" transform="translate(-831.192 -162.189)" fill="#fff"/>
    </g>
  </g>
</svg>
